<?xml version="1.0" encoding="UTF-8"?>
<svg id="Layer_1" xmlns="http://www.w3.org/2000/svg" version="1.1" viewBox="0 0 45.05 44.25">
  <defs>
    <style>
      .st0 {
        fill: #fff;
        fill-opacity: 0;
      }

      .st1 {
        fill: #0f62fe;
        fill-rule: evenodd;
      }
    </style>
  </defs>
  <rect class="st0" width="18.03" height="18.03"/>
  <path class="st1" d="M23.05,1.48c-5.21,0-10.24,1.85-14.2,5.23-3.96,3.37-6.6,8.05-7.43,13.18-.83,5.14.19,10.4,2.88,14.86,2.69,4.45,6.88,7.8,11.82,9.45,1.1.2,1.57-.47,1.57-1.05v-3.73c-6.09,1.32-7.38-2.94-7.38-2.94-.43-1.34-1.33-2.48-2.54-3.21-1.99-1.35.16-1.33.16-1.33.69.1,1.36.35,1.94.75.58.39,1.06.91,1.41,1.52.61,1.09,1.62,1.89,2.82,2.23,1.2.34,2.48.19,3.57-.41.09-1.11.58-2.15,1.38-2.93-4.85-.56-9.98-2.44-9.98-10.84-.04-2.18.77-4.29,2.26-5.89-.67-1.89-.59-3.96.22-5.79,0,0,1.83-.6,6.03,2.24,3.59-.98,7.37-.98,10.96,0,4.18-2.83,6.01-2.24,6.01-2.24.81,1.83.89,3.91.22,5.79,1.48,1.6,2.29,3.71,2.26,5.89,0,8.43-5.12,10.27-10.01,10.82.52.53.93,1.17,1.18,1.87.26.7.36,1.45.3,2.19v6.01c0,.72.39,1.27,1.57,1.05,4.94-1.65,9.14-5.01,11.83-9.47,2.69-4.46,3.71-9.74,2.86-14.88-.84-5.14-3.49-9.82-7.47-13.18-3.98-3.37-9.03-5.21-14.24-5.19h0Z"/>
</svg>