<svg width="157" height="56" viewBox="0 0 157 56" fill="none" xmlns="http://www.w3.org/2000/svg">
<path d="M105.314 55.2261V0H117.103L131.265 26.9801H131.582L145.586 0H156.9V55.2261H147.01V15.5867H146.694L142.421 24.3691L131.107 45.257L119.793 24.3691L115.52 15.5867H115.204V55.2261H105.314Z" fill="white"/>
<path d="M97.1715 55.2261H86.3319L81.9012 41.1427H62.2793L57.9277 55.2261H47.3255L65.8397 0H78.8155L97.1715 55.2261ZM79.3693 32.2021L72.2485 9.49447H71.8529L64.8111 32.2021H79.3693Z" fill="white"/>
<path d="M0 55.2261V0H20.0966C34.4966 0 43.9119 9.25711 43.9119 27.6131C43.9119 45.969 34.4966 55.2261 20.0966 55.2261H0ZM10.4439 45.969H20.0966C27.8504 45.969 32.835 41.38 32.835 31.9647V23.2614C32.835 13.8461 27.8504 9.25711 20.0966 9.25711H10.4439V45.969Z" fill="white"/>
</svg>
